<svg xmlns="http://www.w3.org/2000/svg" xmlns:xlink="http://www.w3.org/1999/xlink" width="1443" height="1251" viewBox="0 0 1443 1251">
  <defs>
    <rect id="rect-1" width="1443" height="1251" x="0" y="0"/>
    <mask id="mask-2" maskContentUnits="userSpaceOnUse" maskUnits="userSpaceOnUse">
      <rect width="1443" height="1251" x="0" y="0" fill="black"/>
      <use fill="white" xlink:href="#rect-1"/>
    </mask>
  </defs>
  <g>
    <use fill="rgb(0,26,36)" xlink:href="#rect-1"/>
    <g mask="url(#mask-2)" opacity=".06">
      <path fill="rgb(15,141,172)" fill-rule="evenodd" d="M1873.16107178 622.9741211c324.31420898 74.9555664 406.7380371 314.50048827 383.55029297 436.01367187 12.53417968 154.99804687-128.40795899 740.7475586-710.48480225 831.8305664-155.5637207 24.3334961-342.68603516 13.34765625-566.81347656-50.66601562C451.85464478 1515.50097656 855.55969238 737.91796875 1373.2692871 627.5c209.10339355-37.97753906 373.03796387-33.84667969 499.89178467-4.5258789zm-960.00683594 447.17529296h449.08099365l246.6192627-405.45117187 92.022583 409.17578125h452.76617432l-404.9118042 264.09716797 58.89886475 405.46240234-349.69781494-230.62402344-449.08093262 234.34863281 195.10168457-409.18701171-290.79901123-267.82177735z"/>
    </g>
  </g>
</svg>
